<svg width="115" height="177" viewBox="0 0 115 177" fill="none" xmlns="http://www.w3.org/2000/svg">
<path d="M95.3865 168.5C99.3634 160.546 99.5552 145.186 99.0631 136.521C98.9899 135.232 97.712 134.386 96.4919 134.808C84.4208 138.98 65.0199 147.137 68.3865 152C72.8865 158.5 70.8865 164 72.8865 171C74.8865 178 89.8865 179.5 95.3865 168.5Z" fill="#2A2727"/>
<path d="M25.5245 168.5C21.5476 160.546 21.3558 145.186 21.8479 136.521C21.9211 135.232 23.199 134.386 24.4191 134.808C36.4902 138.98 55.8911 147.137 52.5245 152C48.0245 158.5 50.0245 164 48.0245 171C46.0245 178 31.0245 179.5 25.5245 168.5Z" fill="#2A2727"/>
<path d="M102.024 109.5C104.272 147.531 84.9034 154.402 55.5 154.5C26.0967 154.598 14.0067 145.372 20.0243 109.5C20.0243 76.379 38.3806 74 61.0243 74C83.668 74 102.024 76.379 102.024 109.5Z" fill="#F6F6F6"/>
<mask id="mask0_297_5756" style="mask-type:alpha" maskUnits="userSpaceOnUse" x="19" y="74" width="84" height="78">
<path d="M102.137 109.5C104.385 147.531 91.6104 153.545 61.1374 151.5C32.9608 153.74 14.1197 145.372 20.1374 109.5C20.1374 76.379 38.4937 74 61.1374 74C83.781 74 102.137 76.379 102.137 109.5Z" fill="#D9D9D9"/>
</mask>
<g mask="url(#mask0_297_5756)">
<path d="M103.588 75V111.5C84.3856 116.214 85.588 94.6346 60.088 94.8173C34.588 95 38.088 113.5 19.088 111.5C0.0879812 109.5 20.588 75 20.588 75H103.588Z" fill="#2A2727"/>
</g>
<path d="M56.9697 101.279C56.4503 98.1073 42.3363 87.6503 36.193 78.6247L22.6881 75C20.8205 76.9429 15.0534 135.447 20.091 130.729C25.1287 126.012 52.0156 126.5 52.0156 126.5C52.0156 126.5 57.4891 104.451 56.9697 101.279Z" fill="#F5E65C"/>
<mask id="mask1_297_5756" style="mask-type:alpha" maskUnits="userSpaceOnUse" x="18" y="75" width="40" height="56">
<path d="M56.9697 101.279C56.4503 98.1073 42.3363 87.6503 36.193 78.6247L22.6881 75C20.8205 76.9429 15.0534 135.447 20.091 130.729C25.1287 126.012 52.0156 126.5 52.0156 126.5C52.0156 126.5 57.4891 104.451 56.9697 101.279Z" fill="#F5E65C"/>
</mask>
<g mask="url(#mask1_297_5756)">
<path d="M50.8087 91L58.5156 100.912C58.5156 100.912 53.8915 101.774 50.5156 102C47.1979 102.222 41.0156 100 41.0156 100C41.0156 100 42.5156 97.8235 45.5156 95.4118C48.5156 93 49.4352 93.0675 50.8087 91Z" fill="#F2F28D"/>
<path d="M30.8618 75L53.0157 94.8545C53.0157 94.8545 45.4118 95.252 40.5156 96C36.2298 96.6548 32.0156 98.5 32.0156 98.5C32.0156 98.5 30.0156 92.4265 30.0156 87C30.0156 83.4364 30.8618 75 30.8618 75Z" fill="#F2F28D"/>
<path d="M38.5156 103.5L18.0156 103" stroke="#F2F28D"/>
<path d="M38.5156 106L18.0156 105.5" stroke="#F2F28D"/>
</g>
<path d="M64.1217 101.279C64.6411 98.1073 80.3566 85.5256 86.5 76.5L98 71C99.8675 72.9429 106.038 135.447 101 130.729C95.9627 126.012 68.5157 126 68.5157 126C68.5157 126 63.6023 104.451 64.1217 101.279Z" fill="#F5E65C"/>
<mask id="mask2_297_5756" style="mask-type:alpha" maskUnits="userSpaceOnUse" x="64" y="71" width="39" height="60">
<path d="M64.1217 101.279C64.6411 98.1073 80.3566 85.5256 86.5 76.5L98 71C99.8675 72.9429 106.038 135.447 101 130.729C95.9627 126.012 68.5157 126 68.5157 126C68.5157 126 63.6023 104.451 64.1217 101.279Z" fill="#F5E65C"/>
</mask>
<g mask="url(#mask2_297_5756)">
<path d="M104 111.5L76 127.5L81 129C81 129 93 125 96 123.5C99 122 106 116 106 116L104 111.5Z" fill="#F5CA5C"/>
<path d="M70.2826 91L62.5757 100.912C62.5757 100.912 67.1998 101.774 70.5757 102C73.8934 102.222 80.0757 100 80.0757 100C80.0757 100 78.5757 97.8235 75.5757 95.4118C72.5757 93 71.6561 93.0675 70.2826 91Z" fill="#F2F28D"/>
<path d="M89 74L68.0756 94.8545C68.0756 94.8545 75.6795 95.252 80.5757 96C84.8615 96.6548 89.0757 98.5 89.0757 98.5C89.0757 98.5 91.0757 92.4265 91.0757 87C91.0757 83.4364 89 74 89 74Z" fill="#F2F28D"/>
<path d="M82.0156 103.5L102.516 103" stroke="#F2F28D"/>
<path d="M82.0156 106L102.516 105.5" stroke="#F2F28D"/>
</g>
<circle cx="91.5" cy="107.5" r="7.5" fill="#8C4EA5"/>
<ellipse cx="91.8874" cy="107.5" rx="1.41144" ry="1.13469" fill="#ECBEF0"/>
<path d="M92.7623 102.435L91.6276 100.72L90.5085 102.443L89.635 102.634C90.2173 104.312 91.5898 107.721 91.6553 107.721C91.7217 107.721 93.0575 104.327 93.6479 102.629L92.7623 102.435Z" fill="#ECBEF0"/>
<path d="M92.7623 102.435L91.6276 100.72L90.5085 102.443L89.635 102.634C90.2173 104.312 91.5898 107.721 91.6553 107.721C91.7217 107.721 93.0575 104.327 93.6479 102.629L92.7623 102.435Z" fill="#E9C0C8" fill-opacity="0.2"/>
<path d="M96.7166 105.915L97.5793 104.047L95.5251 104.002L94.903 103.359C93.7825 104.737 91.6039 107.697 91.6383 107.753C91.6733 107.809 95.2632 107.16 97.0175 106.77L96.7166 105.915Z" fill="#ECBEF0"/>
<path d="M96.7166 105.915L97.5793 104.047L95.5251 104.002L94.903 103.359C93.7825 104.737 91.6039 107.697 91.6383 107.753C91.6733 107.809 95.2632 107.16 97.0175 106.77L96.7166 105.915Z" fill="#E9C0C8" fill-opacity="0.2"/>
<path d="M86.5786 105.915L85.7158 104.047L87.77 104.002L88.3922 103.359C89.5126 104.737 91.6913 107.697 91.6568 107.753C91.6219 107.809 88.0319 107.16 86.2777 106.77L86.5786 105.915Z" fill="#ECBEF0"/>
<path d="M86.5786 105.915L85.7158 104.047L87.77 104.002L88.3922 103.359C89.5126 104.737 91.6913 107.697 91.6568 107.753C91.6219 107.809 88.0319 107.16 86.2777 106.77L86.5786 105.915Z" fill="#E9C0C8" fill-opacity="0.2"/>
<path d="M92.7623 112.575L91.6276 114.291L90.5085 112.568L89.635 112.376C90.2173 110.699 91.5898 107.289 91.6553 107.289C91.7217 107.289 93.0575 110.684 93.6479 112.381L92.7623 112.575Z" fill="#ECBEF0"/>
<path d="M92.7623 112.575L91.6276 114.291L90.5085 112.568L89.635 112.376C90.2173 110.699 91.5898 107.289 91.6553 107.289C91.7217 107.289 93.0575 110.684 93.6479 112.381L92.7623 112.575Z" fill="#E9C0C8" fill-opacity="0.2"/>
<path d="M96.7166 109.096L97.5793 110.963L95.5251 111.009L94.903 111.651C93.7825 110.274 91.6039 107.313 91.6383 107.258C91.6733 107.201 95.2632 107.85 97.0175 108.241L96.7166 109.096Z" fill="#ECBEF0"/>
<path d="M96.7166 109.096L97.5793 110.963L95.5251 111.009L94.903 111.651C93.7825 110.274 91.6039 107.313 91.6383 107.258C91.6733 107.201 95.2632 107.85 97.0175 108.241L96.7166 109.096Z" fill="#E9C0C8" fill-opacity="0.2"/>
<path d="M86.5786 109.096L85.7158 110.963L87.77 111.009L88.3922 111.651C89.5126 110.274 91.6913 107.313 91.6568 107.258C91.6219 107.201 88.0319 107.85 86.2777 108.241L86.5786 109.096Z" fill="#ECBEF0"/>
<path d="M86.5786 109.096L85.7158 110.963L87.77 111.009L88.3922 111.651C89.5126 110.274 91.6913 107.313 91.6568 107.258C91.6219 107.201 88.0319 107.85 86.2777 108.241L86.5786 109.096Z" fill="#E9C0C8" fill-opacity="0.2"/>
<mask id="mask3_297_5756" style="mask-type:alpha" maskUnits="userSpaceOnUse" x="85" y="100" width="13" height="15">
<path d="M92.7623 102.435L91.6276 100.72L90.5085 102.443L89.635 102.634C90.2173 104.312 91.5898 107.721 91.6553 107.721C91.7217 107.721 93.0575 104.327 93.6479 102.629L92.7623 102.435Z" fill="#ECBEF0"/>
<path d="M96.7166 105.915L97.5793 104.047L95.5251 104.002L94.903 103.359C93.7825 104.737 91.6039 107.697 91.6383 107.753C91.6733 107.809 95.2632 107.16 97.0175 106.77L96.7166 105.915Z" fill="#ECBEF0"/>
<path d="M86.5786 105.915L85.7158 104.047L87.77 104.002L88.3922 103.359C89.5126 104.737 91.6913 107.697 91.6568 107.753C91.6219 107.809 88.0319 107.16 86.2777 106.77L86.5786 105.915Z" fill="#ECBEF0"/>
<path d="M92.7623 112.575L91.6276 114.291L90.5085 112.568L89.635 112.376C90.2173 110.699 91.5898 107.289 91.6553 107.289C91.7217 107.289 93.0575 110.684 93.6479 112.381L92.7623 112.575Z" fill="#ECBEF0"/>
<path d="M96.7166 109.096L97.5793 110.963L95.5251 111.009L94.903 111.651C93.7825 110.274 91.6039 107.313 91.6383 107.258C91.6733 107.201 95.2632 107.85 97.0175 108.241L96.7166 109.096Z" fill="#ECBEF0"/>
<path d="M86.5786 109.096L85.7158 110.963L87.77 111.009L88.3922 111.651C89.5126 110.274 91.6913 107.313 91.6568 107.258C91.6219 107.201 88.0319 107.85 86.2777 108.241L86.5786 109.096Z" fill="#ECBEF0"/>
</mask>
<g mask="url(#mask3_297_5756)">
<path d="M91.618 107.297L91.6544 103.109L93.6694 102.62L92.7757 105.012L91.618 107.297Z" fill="#FDE8F3"/>
<path d="M91.6792 107.251L91.6428 103.063L89.6278 102.573L90.5216 104.966L91.6792 107.251Z" fill="#EBC2CA"/>
<path d="M91.666 103.1L92.773 102.436L93.7693 102.602L91.666 103.1Z" fill="#F9F6FC"/>
<path d="M91.6937 103.1L90.5867 102.38L89.5904 102.56L91.6937 103.1Z" fill="#DDA2E1"/>
<path d="M91.6384 103.1V100.748L92.9392 102.325L92.275 102.768L91.6384 103.1Z" fill="#FEFFFD"/>
<path d="M90.31 102.317L91.6384 103.1V100.693L90.31 102.317Z" fill="#FEFFFD"/>
<path d="M87.825 105.424L86.1587 106.899H86.189L91.9151 107.86L87.825 105.424Z" fill="#FBDED6"/>
<path d="M87.8469 105.424L88.4834 103.321L91.5 107.638L87.8469 105.424Z" fill="#FCE1F0"/>
<path d="M87.836 105.419L87.6961 103.947L88.531 103.262L87.836 105.419Z" fill="#FEF3FB"/>
<path d="M87.8746 105.369L86.5472 105.945L86.2694 106.808L87.8746 105.369Z" fill="#98AEE1"/>
<path d="M87.8192 105.397L85.5775 103.985L87.7085 103.764L87.8192 105.397Z" fill="#E6FEFE"/>
<path d="M87.8192 105.424L85.6882 104.068V104.124L86.5185 106.006L87.8192 105.424Z" fill="#E6FEFE"/>
<path d="M87.8745 109.659L88.428 111.707L91.666 107.666L87.8745 109.659Z" fill="#C1EBF7"/>
<path d="M87.9022 109.659L86.2694 108.247H86.1587L89.0369 107.5L91.5554 107.721L87.9022 109.659Z" fill="#E8EDF9"/>
<path d="M86.2694 108.22L86.5185 109.105L87.9853 109.714L86.2694 108.22Z" fill="#E8EDF9"/>
<path d="M87.9299 109.631L85.6885 110.92H85.7166L85.6605 110.979L87.8739 111.126L87.9299 109.631Z" fill="#C4D6F3"/>
<path d="M85.6328 110.987L86.4631 109.161L86.5184 109.105L87.9299 109.659L85.6328 110.987Z" fill="#E8EDF9"/>
<path d="M87.9365 109.631L87.7638 111.052L88.4834 111.734L87.9365 109.631Z" fill="#C2B6E1"/>
<path d="M91.6107 112.205L91.6937 107.721L93.714 112.399L91.6107 112.205Z" fill="#E1C0C9"/>
<path d="M91.6004 112.205L89.4243 112.399L91.6937 107.472L91.6004 112.205Z" fill="#E0C0CC"/>
<path d="M93.8801 112.389L91.6107 112.205V112.524L92.9231 112.758L93.8801 112.389Z" fill="#899CC9"/>
<path d="M91.6107 112.205L90.4207 112.592L91.0018 113.506L91.6384 114.336L91.6107 112.205Z" fill="#798BB9"/>
<path d="M92.9115 112.62L91.6384 112.233H91.6107L91.6384 114.391L92.9115 112.62Z" fill="#899CC9"/>
<path d="M95.7067 109.769L91.7491 107.5L97.2289 108.081L95.7067 109.769Z" fill="#FEFDFC"/>
<path d="M96.703 109.078L95.7067 109.769L97.5886 110.987L96.703 109.078Z" fill="#ECFDFD"/>
<path d="M95.7067 109.769L97.0628 108.192L97.0904 108.22L96.869 109.022L95.7067 109.769Z" fill="#96C6E7"/>
<path d="M91.6383 112.205C90.9741 112.26 89.6346 112.371 89.5903 112.371L90.4759 112.592L91.6383 112.205Z" fill="#A17CB0"/>
<path d="M95.7204 109.744L91.7905 107.5L94.8843 111.707L95.7204 109.744Z" fill="#FEFDFC"/>
<path d="M95.7067 109.769L95.5129 111.042L97.6163 110.987L95.7067 109.769Z" fill="#ECFDFD"/>
<path d="M95.5129 111.042L95.7067 109.769L94.821 111.734L95.5129 111.042Z" fill="#E0F5F8"/>
<path d="M95.762 105.286L97.0627 106.836L94.2675 107.528H91.6107L95.762 105.286Z" fill="#EFE3E0"/>
<path d="M95.7342 105.314L94.8763 103.376L91.832 107.445L95.7342 105.314Z" fill="#EFE3E0"/>
<path d="M95.7343 105.314L97.7545 104.013V104.068L96.8966 106.033L95.7343 105.314Z" fill="#E4F1FC"/>
<path d="M97.7546 104.013L95.5129 103.902V103.93L95.7343 105.314L97.7546 104.013Z" fill="#E4F1FC"/>
<path d="M95.4696 103.711L94.7933 103.266L95.7343 105.314L95.4696 103.711Z" fill="#F6C0E0"/>
<path d="M97.0074 106.781C96.583 106.301 95.7288 105.336 95.7067 105.314L96.869 105.84L97.0074 106.781Z" fill="#CDDFE8"/>
</g>
<path d="M90.5576 104.76L89.6444 105.452L90.2809 106.531L91.637 107.583L91.2772 106.033L90.5576 104.76Z" fill="#ECBEF0"/>
<path d="M92.6886 104.788L93.6019 105.48L92.9654 106.559L91.6093 107.611L91.9691 106.061L92.6886 104.788Z" fill="#ECBEF0"/>
<path d="M90.5853 110.406L89.672 109.714L90.3086 108.635L91.6647 107.583L91.3049 109.133L90.5853 110.406Z" fill="#ECBEF0"/>
<path d="M88.7048 108.27L88.7425 107.125L89.9913 107.022L91.6329 107.522L90.1597 108.123L88.7048 108.27Z" fill="#ECBEF0"/>
<path d="M94.5373 108.27L94.4997 107.125L93.2509 107.022L91.6093 107.522L93.0825 108.123L94.5373 108.27Z" fill="#ECBEF0"/>
<path d="M92.7163 110.378L93.6296 109.686L92.9931 108.607L91.637 107.555L91.9968 109.105L92.7163 110.378Z" fill="#ECBEF0"/>
<mask id="mask4_297_5756" style="mask-type:alpha" maskUnits="userSpaceOnUse" x="88" y="104" width="7" height="7">
<path d="M90.5576 104.76L89.6444 105.452L90.2809 106.531L91.637 107.583L91.2772 106.033L90.5576 104.76Z" fill="#ECBEF0"/>
<path d="M92.6886 104.788L93.6019 105.48L92.9654 106.559L91.6093 107.611L91.9691 106.061L92.6886 104.788Z" fill="#ECBEF0"/>
<path d="M90.5853 110.406L89.672 109.714L90.3086 108.635L91.6647 107.583L91.3049 109.133L90.5853 110.406Z" fill="#ECBEF0"/>
<path d="M88.7048 108.27L88.7425 107.125L89.9913 107.022L91.6329 107.522L90.1597 108.123L88.7048 108.27Z" fill="#ECBEF0"/>
<path d="M94.5373 108.27L94.4997 107.125L93.2509 107.022L91.6093 107.522L93.0825 108.123L94.5373 108.27Z" fill="#ECBEF0"/>
<path d="M92.7163 110.378L93.6296 109.686L92.9931 108.607L91.637 107.555L91.9968 109.105L92.7163 110.378Z" fill="#ECBEF0"/>
</mask>
<g mask="url(#mask4_297_5756)">
<path d="M92.9761 106.587L93.1975 105.175L93.668 105.48L92.9761 106.587Z" fill="#CA80C4"/>
<path d="M93.2712 105.231L91.9152 106.144L92.6047 104.705L93.2712 105.231Z" fill="#CA80C4"/>
<path d="M91.6477 107.555L93.2529 105.231L93.0038 106.559L91.6477 107.555Z" fill="#D593B8"/>
<path d="M91.3432 106.089C90.9373 105.793 90.1033 105.197 90.0148 105.175L90.5683 104.511L91.3432 106.089Z" fill="#E1BADF"/>
<path d="M90.0148 105.092C90.0958 105.569 90.2611 106.517 90.2897 106.583C90.2922 106.587 90.2928 106.588 90.2916 106.587C90.291 106.586 90.2904 106.585 90.2897 106.583C90.2492 106.528 89.7308 105.874 89.4613 105.535L90.0148 105.092Z" fill="#E0B8E4"/>
<path d="M91.6754 107.611L89.9884 105.016L90.2916 106.559L91.6754 107.611Z" fill="#E1BADF"/>
<path d="M91.7306 107.639L91.2602 106.006C90.8906 105.762 90.1801 105.292 90.039 105.193L91.7306 107.639Z" fill="#F9DAF9"/>
<path d="M90.2085 108.164L88.5757 107.611L88.631 108.386L90.2085 108.164Z" fill="#A9A2D5"/>
<path d="M90.0149 107.03L88.7141 107.694V107.722L88.5481 107.03H90.0149Z" fill="#A9A2D5"/>
<path d="M91.62 107.528L88.6311 107.638L90.1256 108.137L91.62 107.528Z" fill="#D5F7FB"/>
<path d="M89.9871 106.974C89.5816 107.195 88.7654 107.638 88.7418 107.638L91.786 107.583L89.9871 106.974Z" fill="#D5F7FB"/>
<path d="M90.3193 108.635L90.0425 110.019L89.5997 109.769L90.3193 108.635Z" fill="#C1E6FB"/>
<path d="M91.3709 109.078L90.0148 110.019L90.5406 110.461L91.3709 109.078Z" fill="#99C7E5"/>
<path d="M91.7307 107.5L90.0425 110.046L91.4539 109.161L91.7307 107.5Z" fill="#C1E6FB"/>
<path d="M91.786 107.472L90.2915 108.635L90.0148 110.046L91.786 107.472Z" fill="#C1E6FB"/>
<path d="M93.1881 110.019L91.9585 109.09L91.9427 109.105L92.7453 110.434L93.1881 110.019Z" fill="#729ECF"/>
<path d="M93.2435 110.102L93.0221 108.579L93.7693 109.742L93.2435 110.102Z" fill="#83CBE4"/>
<path d="M93.0775 108.635L91.6107 107.528L93.2712 110.129L93.0775 108.635Z" fill="#83CBE4"/>
<path d="M91.8321 109.09L91.5553 107.389L93.3265 110.157L91.8321 109.09Z" fill="#83CBE4"/>
<path d="M94.6273 107.666L93.0775 108.192V108.22L94.572 108.358L94.6273 107.666Z" fill="#B09AD8"/>
<path d="M93.2712 105.231C92.856 105.498 92.0147 106.033 91.9704 106.033L91.5553 107.694L93.2712 105.231Z" fill="#CA80C4"/>
<path d="M94.572 107.749L93.1605 106.974L94.655 107.14L94.572 107.749Z" fill="#8E7ACC"/>
<path d="M94.572 107.694L91.6107 107.528L93.1052 108.22L94.572 107.694Z" fill="#B78FB6"/>
<path d="M93.2159 106.974C92.6716 107.159 91.5664 107.528 91.5 107.528L94.572 107.721L93.2159 106.974Z" fill="#C196D5"/>
</g>
<path d="M63.4998 112C56.9997 112 55.5384 111.071 53 114C50.4615 116.929 50 123 58 125C66 127 70.8666 126.11 81 124C90.1618 122.092 99.6008 121.507 103.5 113C109 101 110 94.5 105.5 84.5C102.894 78.7081 97 75.5 97 75.5C97 75.5 95.4664 79.3173 94.5 84.5C92.5536 94.9381 93.0049 101.874 83.9998 107.5C77.0485 111.843 70 112 63.4998 112Z" fill="#2A2727"/>
<path d="M109.37 85.6104C107.37 77.1104 100.859 67.8304 94.5089 71.2263C92.1923 72.4651 91.0089 59.7262 92.0089 77.7263C93.0089 95.7263 85.1473 103.342 85.1473 103.342C84.2419 105.887 55.4734 109.11 63.3705 112.11C67.4096 113.645 65.8703 123.11 64.3705 126.61C62.8706 130.11 85.9191 127.446 95.8704 121.11C102.16 117.106 104.542 113.261 107.37 106.61C110.594 99.0293 111.37 94.1104 109.37 85.6104Z" fill="#F5E65C"/>
<path d="M111.96 41.633C117.172 63.9315 91.4428 82.0604 58.4999 82.5C16.5396 84.0023 -5.50005 61.5 9.96017 41.633C9.96017 18.788 32.7937 3 60.9602 3C89.1267 3 111.96 18.788 111.96 41.633Z" fill="#F6F6F6"/>
<path d="M26.4212 13.2317C20.9208 17.2305 17.9251 20.4595 14.5652 26.1302C13.9723 27.1308 12.6651 27.4584 11.7347 26.7605C5.01895 21.7229 -3.81693 11.6684 4.16542 3.39543C12.2071 -4.93896 22.047 3.87547 26.9039 10.5207C27.5404 11.3915 27.2936 12.5974 26.4212 13.2317Z" fill="#2A2727"/>
<path d="M89.7932 14.1914C95.1139 17.515 98.1665 20.5991 101.483 26.951C102.043 28.0246 103.407 28.4092 104.373 27.6791C111.075 22.6152 119.774 12.624 111.835 4.39543C103.844 -3.88551 94.0791 4.76311 89.1901 11.3926C88.5134 12.3103 88.8261 13.5873 89.7932 14.1914Z" fill="#2A2727"/>
<path d="M61.1514 50.0001C56.753 48.5142 54.3277 48.2678 50.1514 50.0001C51.1787 52.4288 52.1514 54.5001 55.6514 56.0001C59.0512 54.3689 59.7779 52.997 61.1514 50.0001Z" fill="#2A2727"/>
<path d="M31.1515 52C23.1515 55.6 15.4683 53.4275 11.1515 46C6.83474 38.5725 15.6515 27 21.1515 24.5C29.4848 20.8333 46.2515 16.7 46.6515 29.5C47.1515 45.5 41.1515 47.5 31.1515 52Z" fill="#2A2727"/>
<path d="M80.1804 52.1793C88.1804 55.7793 95.8636 53.6068 100.18 46.1793C104.497 38.7518 95.6804 27.1793 90.1804 24.6793C81.8471 21.0127 65.0804 16.8793 64.6804 29.6793C64.1804 45.6793 70.1804 47.6793 80.1804 52.1793Z" fill="#2A2727"/>
<path d="M19 112C14.9254 111.093 11.055 110.699 8.5 114C5.07748 118.422 9.20187 125.213 14.5 127C20.3508 128.974 29.2203 123.93 27.5 118C26.368 114.098 22.9661 112.882 19 112Z" fill="#2A2727"/>
<path d="M77.8411 38.0956C75.6542 38.6618 75.6381 35.2647 72.9206 35.2647C70.203 35.2647 69.6402 39.228 68 38.0956C68 35.2814 70.203 33 72.9206 33C75.6381 33 77.8411 35.2814 77.8411 38.0956Z" fill="#F6F6F6"/>
<path d="M55.6627 59L45.1539 59.493C44.1539 64 48.1077 69.2299 54.6538 70C63.1537 71 67.6538 64.5 66.1539 59.493L55.6627 59Z" fill="#CD7A7A"/>
<path d="M40.8411 38.0956C38.6542 38.6618 38.6381 35.2647 35.9206 35.2647C33.203 35.2647 32.6402 39.228 31 38.0956C31 35.2814 33.203 33 35.9206 33C38.6381 33 40.8411 35.2814 40.8411 38.0956Z" fill="#F6F6F6"/>
<rect x="13.8577" y="67.6371" width="52.1423" height="45.5658" rx="1.40925" fill="#EBC34B"/>
<path d="M13.8577 66.2278C13.8577 64.9306 14.9092 63.879 16.2064 63.879H33.1174C34.4146 63.879 35.4662 64.9306 35.4662 66.2278V69.0463H13.8577V66.2278Z" fill="#EBC34B"/>
<path d="M41.8078 67.637L33.3523 63.879L33.1174 67.637H41.8078Z" fill="#EBC34B"/>
<mask id="mask5_297_5756" style="mask-type:alpha" maskUnits="userSpaceOnUse" x="13" y="63" width="53" height="51">
<rect x="13.8577" y="67.6371" width="52.1423" height="45.5658" rx="1.40925" fill="#EBC34B"/>
<path d="M13.8577 66.2278C13.8577 64.9306 14.9092 63.879 16.2064 63.879H33.1174C34.4146 63.879 35.4662 64.9306 35.4662 66.2278V69.0463H13.8577V66.2278Z" fill="#EBC34B"/>
<path d="M41.8078 67.637L33.3523 63.879L33.1174 67.637H41.8078Z" fill="#EBC34B"/>
</mask>
<g mask="url(#mask5_297_5756)">
<path d="M1.75573 81.3361L14.1939 110.93C14.4137 111.453 14.9257 111.794 15.4931 111.794H64.8363C65.7709 111.794 66.4466 110.9 66.1925 110.001L57.8289 80.4068C57.6573 79.7999 57.1034 79.3808 56.4727 79.3808H3.0549C2.04742 79.3808 1.36537 80.4073 1.75573 81.3361Z" fill="#E2873C"/>
<path d="M38.514 75.6228C37.2168 75.6228 36.1652 76.6744 36.1652 77.9716V80.7901H57.7738V80.3203L56.0127 75.6967C55.8249 75.6483 55.6279 75.6228 55.425 75.6228H38.514Z" fill="#E2873C"/>
<path d="M29.8236 79.3808L38.2791 75.6228L38.514 79.3808H29.8236Z" fill="#E2873C"/>
</g>
<rect x="16.4108" y="69.5872" width="46.3784" height="29.254" fill="#FEFFFD"/>
<rect x="16.4108" y="71.0142" width="46.3784" height="33.5351" fill="#F6F6F6"/>
<rect x="14.9838" y="71.7277" width="46.3784" height="29.254" fill="#FEFFFD"/>
<mask id="mask6_297_5756" style="mask-type:alpha" maskUnits="userSpaceOnUse" x="14" y="71" width="48" height="30">
<rect x="14.9838" y="71.7277" width="46.3784" height="29.254" fill="#FEFFFD"/>
</mask>
<g mask="url(#mask6_297_5756)">
<path d="M1.53913 81.0431L14.0404 110.816C14.2613 111.342 14.7759 111.684 15.3461 111.684H64.9395C65.8788 111.684 66.5579 110.786 66.3025 109.881L57.8965 80.1082C57.7241 79.4976 57.1674 79.076 56.5335 79.076H2.84488C1.8323 79.076 1.1468 80.1087 1.53913 81.0431Z" fill="#F6F6F6"/>
<path d="M38.4835 75.2953C37.1798 75.2954 36.1227 76.3534 36.1227 77.6584V80.4939H57.8411V80.0214L56.0707 75.3689C55.8821 75.3203 55.6841 75.2953 55.4803 75.2953H38.4835Z" fill="#F6F6F6"/>
<path d="M29.7493 79.076L38.2477 75.2953L38.4837 79.076H29.7493Z" fill="#F6F6F6"/>
</g>
<path d="M0.821785 82.4356L13.26 112.03C13.4798 112.553 13.9918 112.893 14.5591 112.893H63.9024C64.837 112.893 65.5127 112 65.2585 111.101L56.8949 81.5063C56.7234 80.8994 56.1695 80.4803 55.5388 80.4803H2.12095C1.11348 80.4803 0.431429 81.5068 0.821785 82.4356Z" fill="#EBC34B"/>
<path d="M37.5801 76.7223C36.2829 76.7223 35.2315 77.7738 35.2314 79.0709V81.8893H56.8398V81.4196L55.0801 76.7994C54.8917 76.7507 54.6948 76.7223 54.4912 76.7223H37.5801Z" fill="#EBC34B"/>
<path d="M28.8898 80.4803L37.3453 76.7223L37.5802 80.4803H28.8898Z" fill="#EBC34B"/>
<path d="M66 67.6371H64.5907V105.922L66 110.15V67.6371Z" fill="#E2873C"/>
<path d="M62.7892 99.0869V69.5872L64.9297 75.2969L64.573 105.976L62.7892 99.0869Z" fill="#E2873C"/>
</svg>
